<svg xmlns="http://www.w3.org/2000/svg" viewBox="0 0 512 512" fill="#3b82f6">
  <path d="M256 10.449l-160 92.35v184.7l160 92.35 160-92.35v-184.7L256 10.449zm-128 215.15l-16-9.232V205.2l16 9.232v11.167zm0-38.25l-16-9.232v-33.333l16 9.232v33.333zm32 18.541l-16-9.232v-33.333l16 9.232v33.333zm0-60.417l-16-9.232v-11.167l16 9.232v11.167zm32 80.958l-16-9.232v-11.167l16 9.232v11.167zm0-38.25l-16-9.232v-33.333l16 9.232v33.333zm32 18.541l-16-9.232v-33.333l16 9.232v33.333zm0-60.417l-16-9.232v-11.167l16 9.232v11.167zm32 80.958l-16-9.232v-11.167l16 9.232v11.167zm0-38.25l-16-9.232v-33.333l16 9.232v33.333zm32 18.541l-16-9.232v-33.333l16 9.232v33.333zm0-60.417l-16-9.232v-11.167l16 9.232v11.167zm32 80.958l-16-9.232v-11.167l16 9.232v11.167zm0-38.25l-16-9.232v-33.333l16 9.232v33.333zm32 38.25l-16-9.232V205.2l16 9.232v11.167zm0-38.25l-16-9.232v-33.333l16 9.232v33.333z" />
</svg> 